<svg xmlns="http://www.w3.org/2000/svg" width="31.17" height="31.17">
  <path d="M8.32 17.8h9.63v1.13H8.32zm0-2.85H20.2v1.13H8.32zm0 6.15h5.94v1.12H8.32zm0-9.15h9.63v1.13H8.32zm0-5.63h7.1v3.87h-7.1zm14.22 16.9c0-1.73-1.4-3.14-3.14-3.14-1.74 0-3.14 1.4-3.14 3.15 0 1.73 1.4 3.14 3.14 3.14 1.73 0 3.14-1.4 3.14-3.14zm1.46 1.1l-4.6 3.63 2.55 3.22 1.2-3.2 3.4-.43m-15.23-1.77l3.2 1.2.43 3.4 3.22-2.55-3.63-4.6"/>
  <path d="M11.84 27h-5.8V1.4h12L18 6.26h5.2v17.37l.94-.68.45.56V4.9h-.05l.03-.03L19.4.05V0H4.62v28.4h8.96l-.1-.75-1.64-.65zm7.58-25.06l3.15 2.93H19.4l.02-2.93z"/>
</svg>
