<?xml version="1.0" encoding="utf-8"?>
<!-- Generator: Adobe Illustrator 19.2.1, SVG Export Plug-In . SVG Version: 6.00 Build 0)  -->
<svg version="1.1" id="Layer_1" xmlns="http://www.w3.org/2000/svg" xmlns:xlink="http://www.w3.org/1999/xlink" x="0px" y="0px"
	 viewBox="0 0 470 470" style="enable-background:new 0 0 470 470;" xml:space="preserve">
<style type="text/css">
	.st0{fill:#67A037;}
</style>
<g>
	<path class="st0" d="M330,63.1h-15c-4.1,0-7.5,3.4-7.5,7.5s3.4,7.5,7.5,7.5h15c8.6,0,15.6,7,15.6,15.6v345.8
		c0,8.6-7,15.6-15.6,15.6H65c-8.6,0-15.6-7-15.6-15.6V93.7c0-8.6,7-15.6,15.6-15.6h15c4.1,0,7.5-3.4,7.5-7.5s-3.4-7.5-7.5-7.5H65
		c-16.9,0-30.6,13.7-30.6,30.6v345.8c0,16.9,13.7,30.6,30.6,30.6H330c16.9,0,30.6-13.7,30.6-30.6V93.7
		C360.5,76.8,346.8,63.1,330,63.1z"/>
	<path class="st0" d="M435.5,395.6c0,0,0-249.7,0-249.7c0-0.3,0-0.7-0.1-1c0-0.1,0-0.1,0-0.2c-0.1-0.4-0.1-0.7-0.2-1l-17.5-56.3
		c-1-3.1-3.9-5.3-7.2-5.3s-6.2,2.1-7.2,5.3l-17.5,56.3c-0.1,0.3-0.2,0.7-0.2,1c0,0.1,0,0.1,0,0.2c0,0.3-0.1,0.7-0.1,1v273.5
		c0,11.4,9.3,20.6,20.6,20.6h8.8c11.4,0,20.6-9.3,20.6-20.6C435.5,419.4,435.5,395.6,435.5,395.6L435.5,395.6z M410.5,114.9
		l7.3,23.6h-14.6L410.5,114.9L410.5,114.9z M400.5,153.4h20v234.7h-20V153.4z M420.5,419.4c0,3.1-2.5,5.6-5.6,5.6h-8.8
		c-3.1,0-5.6-2.5-5.6-5.6v-16.3h20V419.4z"/>
	<path class="st0" d="M274.9,346.9H120.1c-4.1,0-7.5,3.4-7.5,7.5s3.4,7.5,7.5,7.5h154.9c4.1,0,7.5-3.4,7.5-7.5
		S279.1,346.9,274.9,346.9z"/>
	<path class="st0" d="M197.5,376.9h-77.4c-4.1,0-7.5,3.4-7.5,7.5s3.4,7.5,7.5,7.5h77.4c4.1,0,7.5-3.4,7.5-7.5
		S201.6,376.9,197.5,376.9z"/>
	<path class="st0" d="M64.5,100.6v331.9c0,4.1,3.4,7.5,7.5,7.5H323c4.1,0,7.5-3.4,7.5-7.5V100.6c0-4.1-3.4-7.5-7.5-7.5h-30.6V70.6
		c0-16.9-13.7-30.6-30.6-30.6h-17.5c-3.6-22.6-23.3-40-46.9-40s-43.3,17.4-46.9,40h-17.5c-16.9,0-30.6,13.7-30.6,30.6v22.5H72
		C67.8,93.1,64.5,96.4,64.5,100.6z M117.6,70.6c0-8.6,7-15.6,15.6-15.6h24.4c4.1,0,7.5-3.4,7.5-7.5c0-17.9,14.6-32.5,32.5-32.5
		S230,29.6,230,47.5c0,4.1,3.4,7.5,7.5,7.5h24.4c8.6,0,15.6,7,15.6,15.6v52.5H117.6L117.6,70.6L117.6,70.6z M79.5,108.1h23.1v22.5
		c0,4.1,3.4,7.5,7.5,7.5h174.9c4.1,0,7.5-3.4,7.5-7.5v-22.5h23.1V425H79.5C79.5,425,79.5,108.1,79.5,108.1z"/>
	<path class="st0" d="M197.5,35c-4.1,0-7.5,3.4-7.5,7.5v10c0,4.1,3.4,7.5,7.5,7.5s7.5-3.4,7.5-7.5v-10C205,38.4,201.6,35,197.5,35z"
		/>
	<path class="st0" d="M274.9,171.2h-10c-4.1,0-7.5,3.4-7.5,7.5s3.4,7.5,7.5,7.5h2.5v90.7h-2.5c-4.1,0-7.5,3.4-7.5,7.5
		s3.4,7.5,7.5,7.5h10c4.1,0,7.5-3.4,7.5-7.5V178.7C282.4,174.5,279.1,171.2,274.9,171.2L274.9,171.2z"/>
	<path class="st0" d="M120.1,331.9h114.9c4.1,0,7.5-3.4,7.5-7.5v-10c0-4.1-3.4-7.5-7.5-7.5s-7.5,3.4-7.5,7.5v2.5h-99.9v-2.5
		c0-4.1-3.4-7.5-7.5-7.5s-7.5,3.4-7.5,7.5v10C112.6,328.6,115.9,331.9,120.1,331.9z"/>
	<path class="st0" d="M120.1,291.9h114.9c4.1,0,7.5-3.4,7.5-7.5V178.7c0-4.1-3.4-7.5-7.5-7.5H120.1c-4.1,0-7.5,3.4-7.5,7.5v20
		c0,4.1,3.4,7.5,7.5,7.5s7.5-3.4,7.5-7.5v-12.5h99.9v90.7h-99.9v-48.2c0-4.1-3.4-7.5-7.5-7.5s-7.5,3.4-7.5,7.5v55.7
		C112.6,288.6,115.9,291.9,120.1,291.9z"/>
</g>
</svg>
