<?xml version="1.0" encoding="utf-8"?>
<!-- Generator: Adobe Illustrator 19.2.1, SVG Export Plug-In . SVG Version: 6.00 Build 0)  -->
<svg version="1.1" id="Layer_1" xmlns="http://www.w3.org/2000/svg" xmlns:xlink="http://www.w3.org/1999/xlink" x="0px" y="0px"
	 viewBox="0 0 470 470" style="enable-background:new 0 0 470 470;" xml:space="preserve">
<style type="text/css">
	.st0{fill:#67A037;}
</style>
<g>
	<path class="st0" d="M401.2,68.8C356.8,24.4,297.8,0,235,0C178,0,123,20.7,80.2,58.2c-3.1,2.7-3.4,7.5-0.7,10.6s7.5,3.4,10.6,0.7
		C130.1,34.4,181.6,15,235,15c121.3,0,220,98.7,220,220s-98.7,220-220,220S15,356.3,15,235c0-53.4,19.4-104.9,54.5-145
		c2.7-3.1,2.4-7.9-0.7-10.6c-3.1-2.7-7.9-2.4-10.6,0.7C20.7,123,0,178,0,235c0,62.8,24.4,121.8,68.8,166.2S172.2,470,235,470
		s121.8-24.4,166.2-68.8S470,297.8,470,235S445.6,113.2,401.2,68.8z"/>
	<path class="st0" d="M305.7,295.1c-2.9-2.9-7.7-2.9-10.6,0c-3.5,3.5-7.3,6.7-11.3,9.5l-7.6-13.1c17.4-12.7,28.7-33.3,28.7-56.5
		c0-38.6-31.4-70-70-70c-26.5,0-49.6,14.8-61.5,36.6l-14-5.7c4-7.6,9.1-14.7,15.4-21c2.9-2.9,2.9-7.7,0-10.6
		c-2.9-2.9-7.7-2.9-10.6,0c-18.9,18.9-29.3,44-29.3,70.7c0,4.1,3.4,7.5,7.5,7.5s7.5-3.4,7.5-7.5c0-8.7,1.3-17.2,3.8-25.2l14,5.7
		c-1.8,6.2-2.8,12.7-2.8,19.5c0,38.6,31.4,70,70,70c10.1,0,19.6-2.2,28.3-6l7.5,13.1c-4.4,2.1-9.1,3.8-13.8,5
		c-4,1.1-6.4,5.2-5.3,9.2c0.9,3.4,3.9,5.6,7.2,5.6c0.6,0,1.3-0.1,1.9-0.3c8.4-2.3,16.5-5.6,24.1-10c0,0,0,0,0.1,0c0,0,0.1,0,0.1-0.1
		c7.5-4.3,14.4-9.7,20.6-15.8C308.6,302.8,308.6,298,305.7,295.1z M180,235c0-30.3,24.7-55,55-55s55,24.7,55,55s-24.7,55-55,55
		S180,265.3,180,235z"/>
	<path class="st0" d="M292.5,334.6C275.1,344.7,255.2,350,235,350c-4.1,0-7.5,3.4-7.5,7.5s3.4,7.5,7.5,7.5c22.9,0,45.3-6,65-17.4
		c3.6-2.1,4.8-6.7,2.7-10.2C300.7,333.8,296.1,332.5,292.5,334.6L292.5,334.6z"/>
	<path class="st0" d="M170,122.4c-40.1,23.2-65,66.3-65,112.6c0,4.1,3.4,7.5,7.5,7.5s7.5-3.4,7.5-7.5c0-40.9,22-79.1,57.5-99.6
		c3.6-2.1,4.8-6.7,2.7-10.2C178.2,121.6,173.6,120.3,170,122.4z"/>
	<path class="st0" d="M121.9,121.9c-19.9,19.9-34.2,44.7-41.4,71.7c-1.1,4,1.3,8.1,5.3,9.2c0.6,0.2,1.3,0.3,1.9,0.3
		c3.3,0,6.3-2.2,7.2-5.6c6.5-24.5,19.5-47,37.6-65c2.9-2.9,2.9-7.7,0-10.6C129.5,118.9,124.8,118.9,121.9,121.9z"/>
	<path class="st0" d="M380,369.3c3.1,2.7,7.9,2.3,10.6-0.8C422.4,331.4,440,284,440,235c0-113-92-205-205-205C122,30,30,122,30,235
		s92,205,205,205c49,0,96.4-17.6,133.5-49.5c3.1-2.7,3.5-7.4,0.8-10.6s-7.4-3.5-10.6-0.8C324.4,408.7,280.4,425,235,425
		c-104.8,0-190-85.2-190-190S130.2,45,235,45c104.8,0,190,85.2,190,190c0,45.4-16.3,89.4-45.8,123.8
		C376.5,361.9,376.8,366.6,380,369.3L380,369.3z"/>
	<circle class="st0" cx="204.5" cy="385.5" r="7.5"/>
	<circle class="st0" cx="187.5" cy="90" r="7.5"/>
	<path class="st0" d="M235,133.9c12.4,0,23.3-8.4,26.5-20.4c3.9-14.6-4.8-29.8-19.4-33.7c-2.3-0.6-4.7-0.9-7.1-0.9
		c-12.4,0-23.3,8.4-26.6,20.4c-3.9,14.6,4.8,29.8,19.4,33.7C230.2,133.6,232.6,133.9,235,133.9z M222.9,103.1
		c1.5-5.5,6.4-9.3,12.1-9.3c1.1,0,2.2,0.1,3.2,0.4c6.7,1.8,10.6,8.7,8.8,15.3c-1.5,5.5-6.4,9.3-12.1,9.3c-1.1,0-2.2-0.1-3.2-0.4
		C225.1,116.7,221.1,109.8,222.9,103.1z"/>
	<path class="st0" d="M134.4,356.1c0.2,0.2,0.5,0.4,0.7,0.6c0,0,0.1,0,0.1,0.1c1.9,1.6,3.8,3.1,5.8,4.6c4.8,3.6,10.5,5.4,16.4,5.4
		c8.7,0,16.9-4.1,22.1-11.1c9.1-12.2,6.5-29.4-5.6-38.5c-8-6-15.2-13.1-21.1-21.1c-5.2-6.9-13.4-11.1-22.1-11.1
		c-6,0-11.6,1.9-16.4,5.4c-12.2,9.1-14.7,26.3-5.6,38.5C116.1,339,124.8,348.1,134.4,356.1L134.4,356.1z M123.2,302.5
		c2.2-1.6,4.8-2.5,7.4-2.5c4,0,7.7,1.8,10,5l-1.8,1.4c-3.3,2.5-4,7.2-1.5,10.5c1.5,2,3.7,3,6,3c1.6,0,3.1-0.5,4.5-1.5l2.6-1.9
		c4.5,4.6,9.3,8.9,14.5,12.8c5.5,4.1,6.7,12,2.6,17.5c-2.4,3.2-6,5-10,5c-2.7,0-5.3-0.9-7.4-2.5l1.6-2.2c2.5-3.3,1.8-8-1.5-10.5
		c-3.3-2.5-8-1.8-10.5,1.5l-1.1,1.5c-6.5-6-12.5-12.6-17.8-19.7C116.5,314.5,117.7,306.6,123.2,302.5L123.2,302.5z"/>
	<path class="st0" d="M343.4,311.8c3.5,1.5,7.1,2.3,10.9,2.3c11,0,20.9-6.5,25.3-16.6c1-2.3,1.9-4.6,2.8-6.9c0,0,0-0.1,0-0.1
		c0.1-0.3,0.2-0.6,0.3-0.9c4.3-11.7,7.3-24,8.8-36.4c0.7-5.9-0.5-11.8-3.5-16.9c-4.3-7.5-12-12.6-20.6-13.6
		c-1.1-0.1-2.1-0.2-3.2-0.2c-13.9,0-25.7,10.4-27.3,24.3c-1.2,10-3.8,19.7-7.7,28.9c-2.9,6.7-3,14.2-0.3,21
		C331.5,303.6,336.7,308.9,343.4,311.8L343.4,311.8z M364.1,237.5c0.5,0,1,0,1.5,0.1c4,0.5,7.4,2.7,9.4,6.2c1.4,2.3,1.9,5,1.6,7.7
		c-1,8.8-2.9,17.5-5.5,26l-1.7-0.8c-3.8-1.6-8.2,0.1-9.9,3.9c-1.6,3.8,0.1,8.2,3.9,9.9l2.5,1.1c-2,4.6-6.5,7.6-11.5,7.6
		c-1.7,0-3.4-0.3-4.9-1c-3.1-1.3-5.4-3.8-6.7-6.9c-1.2-3.1-1.2-6.5,0.1-9.6c2.6-5.9,4.6-12,6.2-18.3l3.2,0.4c0.3,0,0.6,0.1,0.9,0.1
		c3.8,0,7-2.8,7.4-6.6c0.5-4.1-2.5-7.8-6.6-8.3l-2.2-0.3C352.4,242.2,357.8,237.5,364.1,237.5L364.1,237.5z"/>
	<path class="st0" d="M339.3,184.9c6,0,11.6-1.9,16.4-5.4c5.9-4.4,9.7-10.8,10.8-18.1s-0.8-14.5-5.2-20.4
		c-7.5-10.1-16.2-19.2-25.8-27.2c-0.2-0.2-0.5-0.4-0.7-0.6c0,0-0.1,0-0.1-0.1c-1.9-1.6-3.8-3.1-5.8-4.6c-4.8-3.6-10.5-5.4-16.4-5.4
		c-8.7,0-16.9,4.1-22.1,11.1c-9.1,12.2-6.5,29.4,5.6,38.5c8,6,15.1,13.1,21.1,21.1C322.4,180.8,330.7,184.9,339.3,184.9L339.3,184.9
		z M305.1,140.7c-5.5-4.1-6.7-12-2.6-17.5c2.4-3.2,6-5,10-5c2.7,0,5.3,0.9,7.4,2.5c0,0-1.6,2.2-1.6,2.2c-2.5,3.3-1.8,8,1.5,10.5
		c1.3,1,2.9,1.5,4.5,1.5c2.3,0,4.5-1,6-3l1.1-1.5c6.5,6,12.5,12.6,17.8,19.7c2,2.7,2.8,6,2.3,9.3s-2.2,6.2-4.9,8.2
		c-2.2,1.6-4.7,2.5-7.4,2.5c-4,0-7.7-1.8-10-5l1.8-1.4c3.3-2.5,4-7.2,1.5-10.5c-2.5-3.3-7.2-4-10.5-1.5l-2.6,1.9
		C315.1,148.8,310.3,144.6,305.1,140.7L305.1,140.7z"/>
</g>
</svg>
