<?xml version="1.0" encoding="utf-8"?>
<!-- Generator: Adobe Illustrator 19.2.1, SVG Export Plug-In . SVG Version: 6.00 Build 0)  -->
<svg version="1.1" id="Capa_1" xmlns="http://www.w3.org/2000/svg" xmlns:xlink="http://www.w3.org/1999/xlink" x="0px" y="0px"
	 viewBox="0 0 411.7 411.7" style="enable-background:new 0 0 411.7 411.7;" xml:space="preserve">
<style type="text/css">
	.st0{fill:#67A037;}
</style>
<path id="XMLID_303_" class="st0" d="M70.3,355c13.2,12.9,20.7,30.2,21.1,48.6c0.1,4.4-3.4,8.1-7.8,8.2c-0.1,0-0.1,0-0.2,0
	c-4.3,0-7.9-3.5-8-7.8c-0.7-29.2-25-53-54.2-53c-0.6,0-1.2,0-1.7,0c-4.4,0.2-8.1-3.3-8.2-7.7s3.3-8.1,7.7-8.2c0.7,0,1.5,0,2.2,0
	C39.7,334.9,57.1,342,70.3,355z M13.3,71.2h198c4.4,0,8-3.6,8-8s-3.6-8-8-8h-198c-4.4,0-8,3.6-8,8S8.9,71.2,13.3,71.2z M197.6,128
	c4.4,0,8-3.6,8-8s-3.6-8-8-8H13.3c-4.4,0-8,3.6-8,8s3.6,8,8,8H197.6z M335.5,79.9c4.4,0,8-3.6,8-8V70c0-4.4-3.6-8-8-8s-8,3.6-8,8
	v1.9C327.5,76.3,331.1,79.9,335.5,79.9z M265.8,98.8c-4.4,0-8,3.6-8,8v1.9c0,4.4,3.6,8,8,8s8-3.6,8-8v-1.9
	C273.8,102.4,270.2,98.8,265.8,98.8z M11.2,176.7c0-4.4,3.6-8,8-8h263.9c5.1-5.1,11.5-8.6,18.5-10.1v-16c-5.1-1.1-9.9-3.4-14-6.5
	c-6.3,4.8-13.9,7.4-22,7.4c-20,0-36.2-16.3-36.2-36.2c0-13.2,7-25,18.1-31.4c-0.4-2.2-0.6-4.4-0.6-6.6c0-16.6,11.1-30.7,26.5-34.9
	c1-19.1,16.9-34.3,36.2-34.3s35.2,15.2,36.2,34.3c15.4,4.2,26.5,18.3,26.5,34.9c0,2.2-0.2,4.4-0.6,6.6c11.1,6.4,18.1,18.2,18.1,31.4
	c0,20-16.3,36.2-36.2,36.2c-8.1,0-15.7-2.6-22-7.4c-4.1,3.2-8.9,5.4-14,6.5v16c7,1.5,13.4,5,18.5,10.1h62.4c4.4,0,8,3.6,8,8
	s-3.6,8-8,8h-65.9c-2.4,0-4.7-1.1-6.2-3c-4.1-5.1-10.2-8-16.7-8c-6.5,0-12.6,2.9-16.7,8c-1.5,1.9-3.8,3-6.2,3H19.2
	C14.8,184.7,11.2,181.1,11.2,176.7z M301.6,125.9v-24.1c0-4.4,3.6-8,8-8s8,3.6,8,8v24.1c3-1.3,5.7-3.3,7.8-5.9c1.5-1.9,3.8-3,6.2-3
	c2.4,0,4.7,1.1,6.2,3c3.9,4.8,9.6,7.5,15.8,7.5c11.2,0,20.2-9.1,20.2-20.2c0-8.9-5.7-16.7-14.2-19.3c-2.2-0.7-3.9-2.2-4.9-4.3
	s-1-4.4-0.1-6.5c1.1-2.5,1.6-5.2,1.6-7.9c0-10.8-8.5-19.7-19.3-20.2c-2.3-0.1-4.4-1.2-5.9-3s-2-4.1-1.7-6.4c0.2-1.1,0.3-2.3,0.3-3.4
	c0-11.2-9.1-20.2-20.2-20.2s-20.2,9.1-20.2,20.2c0,1.1,0.1,2.3,0.3,3.4c0.4,2.3-0.2,4.6-1.7,6.4c-1.4,1.8-3.6,2.9-5.9,3
	c-10.8,0.5-19.3,9.4-19.3,20.2c0,2.8,0.5,5.4,1.6,7.9c0.9,2.1,0.9,4.4-0.1,6.5c-0.9,2.1-2.7,3.6-4.9,4.3
	c-8.5,2.7-14.2,10.4-14.2,19.3c0,11.2,9.1,20.2,20.2,20.2c6.1,0,11.9-2.8,15.8-7.5c1.5-1.9,3.8-3,6.2-3s4.7,1.1,6.2,3
	C296,122.6,298.6,124.6,301.6,125.9z M398.5,282.2H220.9c-4.4,0-8,3.6-8,8s3.6,8,8,8h177.6c4.4,0,8-3.6,8-8S402.9,282.2,398.5,282.2
	z M398.5,225.5H173c-4.4,0-8,3.6-8,8s3.6,8,8,8h225.4c4.4,0,8-3.6,8-8S402.9,225.5,398.5,225.5z M398.5,339H245.7c-4.4,0-8,3.6-8,8
	s3.6,8,8,8h152.7c4.4,0,8-3.6,8-8S402.9,339,398.5,339z M398.5,395.7H255.2c-4.4,0-8,3.6-8,8s3.6,8,8,8h143.3c4.4,0,8-3.6,8-8
	S402.9,395.7,398.5,395.7z M23,279.3c-1.4,0-2.7,0-4,0.1c-4.4,0.1-7.9,3.8-7.7,8.2c0.1,4.4,3.9,7.9,8.2,7.7c1.2,0,2.4-0.1,3.5-0.1
	c59.9,0,109.8,48.7,111.1,108.6c0.1,4.4,3.7,7.8,8,7.8c0.1,0,0.1,0,0.2,0c4.4-0.1,7.9-3.8,7.8-8.2c-0.8-33.3-14.3-64.6-38.2-87.9
	C88,292.2,56.4,279.3,23,279.3z M24.8,225.4c-1.7,0-3.6,0-5.8,0.1c-4.4,0.1-7.9,3.8-7.7,8.2s3.8,7.9,8.2,7.7c2-0.1,3.7-0.1,5.3-0.1
	c89.7,0,164.3,72.9,166.4,162.5c0.1,4.4,3.7,7.8,8,7.8c0.1,0,0.1,0,0.2,0c4.4-0.1,7.9-3.8,7.8-8.2c-1.1-47.8-20.5-92.6-54.8-126.1
	C118,243.9,72.7,225.4,24.8,225.4z"/>
</svg>
