<?xml version="1.0" encoding="utf-8"?>
<!-- Generator: Adobe Illustrator 19.2.1, SVG Export Plug-In . SVG Version: 6.00 Build 0)  -->
<svg version="1.1" id="Capa_1" xmlns="http://www.w3.org/2000/svg" xmlns:xlink="http://www.w3.org/1999/xlink" x="0px" y="0px"
	 viewBox="0 0 406.9 406.9" style="enable-background:new 0 0 406.9 406.9;" xml:space="preserve">
<style type="text/css">
	.st0{fill:#67A037;}
</style>
<path id="XMLID_284_" class="st0" d="M97.9,288.7L47.3,361c-1.6,2.2-4,3.4-6.6,3.4c-1.6,0-3.2-0.5-4.6-1.4c-3.6-2.5-4.5-7.5-2-11.1
	l50.7-72.3c2.5-3.6,7.5-4.5,11.1-2C99.6,280.1,100.4,285.1,97.9,288.7z M126.3,298.8c-3.6-2.5-8.6-1.7-11.1,2l-50.7,72.3
	c-2.5,3.6-1.7,8.6,2,11.1c1.4,1,3,1.4,4.6,1.4c2.5,0,5-1.2,6.6-3.4l50.7-72.3C130.8,306.3,129.9,301.3,126.3,298.8z M345.3,289.8
	c-2.5-3.6-7.5-4.5-11.1-2c-3.6,2.5-4.5,7.5-2,11.1l20.4,29.2c2.4,3.4,3.3,7.6,2.6,11.7c-0.7,4.2-3,7.8-6.4,10.2
	c-3.6,2.5-4.5,7.5-2,11.1c1.6,2.2,4,3.4,6.6,3.4c1.6,0,3.2-0.5,4.6-1.4c6.9-4.8,11.5-12.1,13-20.5c1.5-8.4-0.4-16.8-5.2-23.7
	L345.3,289.8z M403.5,350.3c-2.9,16.7-12.1,31.2-25.9,40.8c0,0,0,0,0,0c-28.6,20-68.1,13-88.2-15.5l-47.6-67.9
	c-1.2-1.7-1.7-3.9-1.3-6c0.4-2.1,1.6-3.9,3.3-5.2l21.1-14.8l-10.7-15.2c-4.5-6.4-6.2-14.3-4.9-22.1c0.9-5.1,3-9.7,6.2-13.6
	l-47.1-67.3l-47.1,67.3c8.2,10,9.1,24.6,1.3,35.7l-10.7,15.2l2,1.4c14.1,9.9,17.6,29.4,7.7,43.5l-53.8,76.8c-1.6,2.2-4,3.4-6.6,3.4
	c-1.6,0-3.2-0.5-4.6-1.4c-3.6-2.5-4.5-7.5-2-11.1l53.8-76.8c4.8-6.9,3.1-16.4-3.7-21.2l-8.6-6c-1.7-1.2-2.9-3.1-3.3-5.2
	c-0.4-2.1,0.1-4.2,1.3-6l15.3-21.8c4.3-6.1,2.8-14.6-3.3-18.9c0,0,0,0,0,0c0,0,0,0,0,0c-2.9-2.1-6.5-2.8-10.1-2.2
	c-3.6,0.6-6.7,2.6-8.8,5.6L116.6,257l1.3,0.9c3.6,2.5,4.5,7.5,2,11.1c-2.5,3.6-7.5,4.5-11.1,2l-7.8-5.5c0,0,0,0,0,0l-8.9-6.3
	c-3.3-2.3-7.4-3.2-11.4-2.5c-4,0.7-7.5,2.9-9.8,6.2l-53.8,76.8c-2.5,3.6-7.5,4.5-11.1,2c-3.6-2.5-4.5-7.5-2-11.1l53.8-76.8
	c4.8-6.8,11.9-11.4,20.2-12.8c8.2-1.5,16.5,0.4,23.3,5.1l2.4,1.7l10.7-15.2c4.5-6.4,11.3-10.8,19.1-12.1c5.1-0.9,10.2-0.5,14.9,1.2
	l50.5-72.1l-61.3-87.5l-12.3,8.6c-2.8,2-6.6,1.9-9.4-0.2L90.8,51.9c-2-1.5-3.2-4-3.2-6.5s1.3-4.9,3.4-6.4l53.5-37.5
	c2.1-1.5,4.8-1.8,7.2-1c2.4,0.8,4.3,2.8,5,5.2l9.1,29.7c1,3.3-0.2,6.9-3.1,8.9l-12.3,8.6l57.9,82.7l57.9-82.7L254,44.3
	c-2.8-2-4.1-5.6-3.1-8.9L260,5.7c0.7-2.5,2.6-4.4,5-5.2c2.4-0.8,5.1-0.5,7.2,1l53.5,37.5c2.1,1.5,3.4,3.9,3.4,6.4s-1.1,5-3.2,6.5
	l-24.8,18.7c-2.8,2.1-6.6,2.1-9.4,0.2l-12.3-8.6l-61.2,87.5l50.5,72.1c12.2-4.3,26.2-0.1,34,10.9l0,0l10.7,15.2l21.1-14.8
	c3.6-2.5,8.6-1.7,11.1,2l47.6,67.9C402.8,316.8,406.5,333.6,403.5,350.3z M267.9,34.5l28.2,19.8l11.4-8.6l-35.5-24.8L267.9,34.5z
	 M148.9,34.5l-4.2-13.6l-35.5,24.8l11.4,8.6l14.1-9.8c0,0,0,0,0.1,0c0,0,0,0,0.1,0L148.9,34.5z M380,312.2l-43-61.4l-21.1,14.8
	c0,0,0,0,0,0l-7.8,5.5c-3.6,2.5-8.6,1.7-11.1-2s-1.7-8.6,2-11.1l1.3-0.9l-10.7-15.2h0c-4.3-6.1-12.8-7.6-18.9-3.3
	c-2.9,2.1-4.9,5.2-5.6,8.8c-0.6,3.6,0.2,7.2,2.2,10.1l15.3,21.8c2.5,3.6,1.7,8.6-2,11.1L259.5,305l43,61.4
	c15,21.4,44.5,26.6,65.9,11.6c0,0,0,0,0,0c10.3-7.2,17.2-18.1,19.4-30.5S387.2,322.5,380,312.2z"/>
</svg>
