<?xml version="1.0" encoding="utf-8"?>
<!-- Generator: Adobe Illustrator 19.2.1, SVG Export Plug-In . SVG Version: 6.00 Build 0)  -->
<svg version="1.1" id="Capa_1" xmlns="http://www.w3.org/2000/svg" xmlns:xlink="http://www.w3.org/1999/xlink" x="0px" y="0px"
	 viewBox="0 0 52 52" style="enable-background:new 0 0 52 52;" xml:space="preserve">
<style type="text/css">
	.st0{fill:#FFFFFF;}
</style>
<g>
	<path class="st0" d="M14,24.1c3.1,0,5.6-2.5,5.6-5.6s-2.5-5.6-5.6-5.6s-5.6,2.5-5.6,5.6S10.9,24.1,14,24.1z M14,15
		c2,0,3.6,1.6,3.6,3.6S16,22.1,14,22.1s-3.6-1.6-3.6-3.6S12,15,14,15z"/>
	<path class="st0" d="M1,0v40v12h50V40V0H1z M3,2h46v26.7l-10.3-9.5C38.5,19.1,38.2,19,38,19c-0.3,0-0.5,0.1-0.7,0.3L27.5,30
		l-4.7-4.7c-0.4-0.4-1-0.4-1.4,0L4.6,40H3V2z M49,50H3v-8h46V50z M7.6,40L22,27.4l10.3,10.3c0.4,0.4,1,0.4,1.4,0s0.4-1,0-1.4
		l-4.8-4.8l9.2-10.1l10.9,10V40H7.6z"/>
</g>
</svg>
