<svg xmlns="http://www.w3.org/2000/svg" id="Capa_1" viewBox="0 0 456.3 456.3">
  <style>
    .st0{fill:#FFFFFF;}
  </style>
  <path d="M195.2 337.8c-1.9 0-3.9-.4-5.7-1.3-4.7-2.2-7.7-7-7.7-12.2V131.9c0-5.2 3-10 7.7-12.2 4.7-2.2 10.3-1.5 14.3 1.8l115.5 96.2c3.1 2.6 4.8 6.3 4.8 10.3 0 4-1.8 7.8-4.8 10.3l-115.5 96.2c-2.5 2.3-5.6 3.3-8.6 3.3zm13.4-177.2v135.1l81.1-67.6-81.1-67.5z" class="st0"/>
  <path d="M227.8 456.3c-38.2 0-76.7-9.5-111.5-29.1-6.5-3.6-8.8-11.8-5.1-18.3 3.6-6.5 11.8-8.8 18.3-5.1 78.3 44.1 177.5 30.5 241.2-33.2 78.5-78.5 78.5-206.3 0-284.8s-206.3-78.5-284.9 0c-78.5 78.5-78.5 206.3 0 284.8 5.2 5.2 5.2 13.8 0 19-5.2 5.2-13.7 5.2-19 0-89-89-89-233.8 0-322.8s233.8-89 322.8 0 89 233.8 0 322.8c-43.9 43.8-102.6 66.7-161.8 66.7z" class="st0"/>
</svg>
