<?xml version="1.0" encoding="utf-8"?>
<!-- Generator: Adobe Illustrator 19.2.0, SVG Export Plug-In . SVG Version: 6.00 Build 0)  -->
<svg version="1.1" id="Capa_1" xmlns="http://www.w3.org/2000/svg" xmlns:xlink="http://www.w3.org/1999/xlink" x="0px" y="0px"
	 viewBox="0 0 60 58.4" style="enable-background:new 0 0 60 58.4;" xml:space="preserve">
<style type="text/css">
	.st0{fill:#67A037;}
</style>
<title>se1</title>
<path class="st0" d="M14,35.4h14v-10H14V35.4z M16,33.4v-3h10v3H16z M26,27.4v1H16v-1H26z"/>
<path class="st0" d="M14,39.4v12h14v-12H14z M20,41.4v3h-4v-3H20z M16,46.4h4v3h-4V46.4z M22,49.4v-3h4v3H22z M26,44.4h-4v-3h4V44.4
	z"/>
<path class="st0" d="M32,35.4h14v-10H32V35.4z M34,33.4v-1h10v1H34z M44,27.4v3H34v-3H44z"/>
<path class="st0" d="M59,47.4c-0.6,0-1,0.4-1,1v1h-1v-1c0-0.6-0.4-1-1-1s-1,0.4-1,1v1h-1V29.2c2,0.9,4.4,0,5.3-2
	c0.3-0.6,0.4-1.3,0.3-2c-0.1-1.1-0.6-2.1-1.5-2.8L32.7,2.5L30,0l-2.7,2.5L1.9,22.4c-1.7,1.4-2,3.9-0.7,5.6c0.1,0.1,0.1,0.2,0.2,0.3
	c1.2,1.3,3,1.6,4.6,0.9v20.2H5v-1c0-0.6-0.4-1-1-1s-1,0.4-1,1v1H2v-1c0-0.6-0.4-1-1-1s-1,0.4-1,1v9c0,0.6,0.4,1,1,1s1-0.4,1-1v-1h1
	v1c0,0.6,0.4,1,1,1s1-0.4,1-1v-1h1v2h48v-2h1v1c0,0.6,0.4,1,1,1s1-0.4,1-1v-1h1v1c0,0.6,0.4,1,1,1s1-0.4,1-1v-9
	C60,47.8,59.6,47.4,59,47.4C59,47.4,59,47.4,59,47.4z M2.9,26.9C2.2,26.1,2.2,24.8,3,24c0,0,0.1-0.1,0.1-0.1L28.6,4L30,2.7L31.4,4
	L56.8,24c0.9,0.7,1,2,0.3,2.8c-0.7,0.8-1.9,1-2.7,0.3L54,26.8l0,0L30,8.3L6.4,26.5l0,0l-0.8,0.6C4.8,27.7,3.6,27.6,2.9,26.9z
	 M2,54.4v-3h1v3H2z M5,54.4v-3h1v3H5z M34,56.4v-15h10v15H34z M52,56.4h-6v-17H32v17H8V27.8l22-17l22,17V56.4z M54,54.4v-3h1v3H54z
	 M57,54.4v-3h1v3H57z"/>
</svg>
