<svg id="Capa_1" data-name="Capa 1" xmlns="http://www.w3.org/2000/svg" viewBox="0 0 59 59"><defs><style>.cls-1{fill:#67a037;}</style></defs><title>se2</title><path class="cls-1" d="M14,7A7,7,0,0,0,0,7V52H0s0,0,0,.06A7,7,0,0,0,6.94,59H59V7H14ZM2,7A5,5,0,0,1,6,2.1a1,1,0,0,0,2,0A5,5,0,0,1,12,7V47.1A7,7,0,0,0,7,45a7.12,7.12,0,0,0-.72,0L6,45.08l-0.38.06-0.41.1-0.26.07-0.49.18-0.15.06c-0.2.08-.39,0.18-0.58,0.28h0A7,7,0,0,0,2,47.1V7ZM57,57H6.94A5,5,0,1,1,12,52h2V9H57V57Z"/><path class="cls-1" d="M46,21a1,1,0,0,0,1.15-1.64l-1.63-1.15a1,1,0,1,0-1.15,1.64Z"/><path class="cls-1" d="M50.92,24.46a1,1,0,0,0,1.15-1.64l-1.63-1.15a1,1,0,1,0-1.15,1.63Z"/><path class="cls-1" d="M37,41a1,1,0,0,0,1,1h2a1,1,0,0,0,0-2H38A1,1,0,0,0,37,41Z"/><path class="cls-1" d="M51,27.38v2a1,1,0,1,0,2,0v-2A1,1,0,0,0,51,27.38Z"/><path class="cls-1" d="M41.12,17.54a1,1,0,0,0,1.15-1.64l-1.63-1.15a1,1,0,1,0-1.15,1.64Z"/><path class="cls-1" d="M43,41a1,1,0,0,0,1,1h2a1,1,0,0,0,0-2H44A1,1,0,0,0,43,41Z"/><path class="cls-1" d="M29,41a1,1,0,0,0-1-1H26a1,1,0,0,0,0,2h2A1,1,0,0,0,29,41Z"/><path class="cls-1" d="M52,36.38a1,1,0,0,0,1-1v-2a1,1,0,0,0-2,0v2A1,1,0,0,0,52,36.38Z"/><path class="cls-1" d="M36.21,14.08a1,1,0,0,0,1.15-1.64l-1.63-1.15a1,1,0,1,0-1.15,1.64Z"/><path class="cls-1" d="M51,40H50a1,1,0,0,0,0,2h3V39.38a1,1,0,0,0-2,0V40Z"/><path class="cls-1" d="M20,42h2a1,1,0,0,0,0-2H20A1,1,0,0,0,20,42Z"/><path class="cls-1" d="M18,28a1,1,0,0,0,1-1V25a1,1,0,0,0-2,0v2A1,1,0,0,0,18,28Z"/><path class="cls-1" d="M20.45,23.27A1,1,0,0,0,21,23.09l1.63-1.15a1,1,0,1,0-1.16-1.64l-1.63,1.15A1,1,0,0,0,20.45,23.27Z"/><path class="cls-1" d="M25.35,19.81a1,1,0,0,0,.58-0.18l1.63-1.15a1,1,0,0,0-1.16-1.64L24.77,18A1,1,0,0,0,25.35,19.81Z"/><path class="cls-1" d="M18,34a1,1,0,0,0,1-1V31a1,1,0,0,0-2,0v2A1,1,0,0,0,18,34Z"/><path class="cls-1" d="M30.26,16.35a1,1,0,0,0,.58-0.18L32.47,15a1,1,0,1,0-1.15-1.64l-1.63,1.15A1,1,0,0,0,30.26,16.35Z"/><path class="cls-1" d="M31,41a1,1,0,0,0,1,1h2a1,1,0,0,0,0-2H32A1,1,0,0,0,31,41Z"/><path class="cls-1" d="M18,40a1,1,0,0,0,1-1V37a1,1,0,0,0-2,0v2A1,1,0,0,0,18,40Z"/><path class="cls-1" d="M41,54H54V46H41v8Zm2-6h9v4H43V48Z"/><path class="cls-1" d="M22,30v2a1,1,0,0,0,2,0V30A1,1,0,0,0,22,30Z"/><path class="cls-1" d="M31,27a1,1,0,0,0-1,1v2a1,1,0,0,0,2,0V28A1,1,0,0,0,31,27Z"/><path class="cls-1" d="M25,29h2a1,1,0,0,0,0-2H25A1,1,0,0,0,25,29Z"/><path class="cls-1" d="M26,36a1,1,0,0,0-1-1H23a1,1,0,0,0,0,2h2A1,1,0,0,0,26,36Z"/><path class="cls-1" d="M29,37h2a1,1,0,0,0,1-1V34a1,1,0,0,0-2,0v1H29A1,1,0,0,0,29,37Z"/><path class="cls-1" d="M40,28a1,1,0,0,0,1,1h2a1,1,0,0,0,0-2H41A1,1,0,0,0,40,28Z"/><path class="cls-1" d="M46,28v2a1,1,0,0,0,2,0V28A1,1,0,0,0,46,28Z"/><path class="cls-1" d="M47,37a1,1,0,0,0,1-1V34a1,1,0,0,0-2,0v1H45a1,1,0,0,0,0,2h2Z"/><path class="cls-1" d="M39,33a1,1,0,0,0,1-1V30a1,1,0,0,0-2,0v2A1,1,0,0,0,39,33Z"/><path class="cls-1" d="M39,37h2a1,1,0,0,0,0-2H39A1,1,0,0,0,39,37Z"/><path class="cls-1" d="M38,46H33a1,1,0,0,0,0,2h5A1,1,0,0,0,38,46Z"/><path class="cls-1" d="M38,49H31a1,1,0,0,0,0,2h7A1,1,0,0,0,38,49Z"/><path class="cls-1" d="M38,52H28a1,1,0,0,0,0,2H38A1,1,0,0,0,38,52Z"/><circle class="cls-1" cx="4" cy="5" r="1"/><circle class="cls-1" cx="10" cy="5" r="1"/><circle class="cls-1" cx="7" cy="8" r="1"/><circle class="cls-1" cx="4" cy="11" r="1"/><circle class="cls-1" cx="10" cy="11" r="1"/><circle class="cls-1" cx="4" cy="17" r="1"/><circle class="cls-1" cx="10" cy="17" r="1"/><circle class="cls-1" cx="7" cy="14" r="1"/><circle class="cls-1" cx="7" cy="20" r="1"/><circle class="cls-1" cx="4" cy="23" r="1"/><circle class="cls-1" cx="10" cy="23" r="1"/><circle class="cls-1" cx="4" cy="29" r="1"/><circle class="cls-1" cx="10" cy="29" r="1"/><circle class="cls-1" cx="7" cy="26" r="1"/><circle class="cls-1" cx="7" cy="32" r="1"/><circle class="cls-1" cx="4" cy="35" r="1"/><circle class="cls-1" cx="10" cy="35" r="1"/><circle class="cls-1" cx="4" cy="41" r="1"/><circle class="cls-1" cx="10" cy="41" r="1"/><circle class="cls-1" cx="7" cy="38" r="1"/><circle class="cls-1" cx="7" cy="44" r="1"/></svg>