<svg id="Capa_1" data-name="Capa 1" xmlns="http://www.w3.org/2000/svg" viewBox="0 0 480 480"><defs><style>.cls-1{fill:#67a037;}</style></defs><title>se3</title><path id="_Compound_Path_" data-name="&lt;Compound Path&gt;" class="cls-1" d="M140,430a10,10,0,0,1-10,10H70a30,30,0,0,1-30-30V370a10,10,0,0,1,20,0v40a10,10,0,0,0,10,10h60A10,10,0,0,1,140,430Zm60-272a10,10,0,0,0-10,10v2a10,10,0,0,0,20,0v-2A10,10,0,0,0,200,158ZM150,60h30a10,10,0,0,1,10,10v50a10,10,0,0,0,20,0V70a30,30,0,0,0-30-30H150A10,10,0,0,0,150,60ZM430,350a10,10,0,0,0-10,10v50a10,10,0,0,1-10,10H380a10,10,0,0,0,0,20h30a30,30,0,0,0,30-30V360A10,10,0,0,0,430,350ZM180,420h-2a10,10,0,0,0,0,20h2A10,10,0,0,0,180,420ZM480,270V440a40,40,0,0,1-40,40H40A40,40,0,0,1,0,440V160.63a10,10,0,0,1,10.62-10l30.08,1.88a27.58,27.58,0,1,0,0-55.05L10.62,99.36A10,10,0,0,1,0,89.38V40A40,40,0,0,1,40,0H210a40,40,0,0,1,40,40V230h58.73l-1.22-19.45a47.58,47.58,0,1,1,95,0L401.27,230H440A40,40,0,0,1,480,270ZM20,230H89.38a10,10,0,0,1,10,10.62L97.48,270.7a27.58,27.58,0,1,0,55,0l-1.88-30.08a10,10,0,0,1,10-10.62H230V40a20,20,0,0,0-20-20H40A20,20,0,0,0,20,40V78.73l19.45-1.22a47.58,47.58,0,1,1,0,95L20,171.27V230ZM240.62,380.64l30.08,1.88a27.58,27.58,0,1,0,0-55.05l-30.08,1.88a10,10,0,0,1-10.62-10V250H171.27l1.22,19.45a47.58,47.58,0,1,1-95,0L78.73,250H20V440a20,20,0,0,0,20,20H230V390.63A10,10,0,0,1,240.62,380.64ZM460,270a20,20,0,0,0-20-20H390.63a10,10,0,0,1-10-10.62l1.88-30.08a27.58,27.58,0,1,0-55.05,0l1.88,30.08a10,10,0,0,1-10,10.62H250v58.73l19.45-1.22a47.58,47.58,0,1,1,0,95L250,401.27V460H440a20,20,0,0,0,20-20V270Zm-30,30a10,10,0,0,0-10,10v2a10,10,0,0,0,20,0v-2A10,10,0,0,0,430,300Z"/></svg>