<svg id="Layer_1" data-name="Layer 1" xmlns="http://www.w3.org/2000/svg" viewBox="0 0 441.59 441.59"><defs><style>.cls-1{fill:#67a037;}</style></defs><title>planting</title><path class="cls-1" d="M431.09,420.59H349l-61.21-64.33V215.4l17.35-12.15,85.29-1.36a10.5,10.5,0,0,0,9.64-6.75l31.6-82.69a10.5,10.5,0,0,0-10-14.25l-88.51,1.41a10.5,10.5,0,0,0-9.64,6.75L293.15,186l-15.81,11.07L261.53,186l-30.45-79.68a10.5,10.5,0,0,0-9.64-6.75L132.93,98.2a10.5,10.5,0,0,0-10,14.25l31.6,82.69a10.5,10.5,0,0,0,9.64,6.75l85.29,1.36,17.35,12.15V356.26l-61.21,64.33H131.24a62.8,62.8,0,0,0,4.08-22.21V319.52a10.5,10.5,0,0,0-10.5-10.5H82.75V58.6H110a10.5,10.5,0,0,0,10.5-10.5V10.5A10.5,10.5,0,0,0,110,0H34.47A10.5,10.5,0,0,0,24,10.5V48.1a10.5,10.5,0,0,0,10.5,10.5H61.75V309H19.68a10.5,10.5,0,0,0-10.5,10.5v78.86a62.83,62.83,0,0,0,4.08,22.21H10.5a10.5,10.5,0,1,0,0,21H431.09a10.5,10.5,0,0,0,0-21h0Zm-90.42-300.1,65.89-1.05L383,181l-47.16.75,31.62-22.14a10.5,10.5,0,1,0-12-17.2l-31.62,22.14,16.83-44.06h0ZM187.17,159.61l31.62,22.14L171.63,181l-23.52-61.56L214,120.49l16.84,44.06-31.62-22.14a10.5,10.5,0,0,0-12,17.2h0ZM45,37.6V21H99.53V37.6H45Zm69.36,360.78a41.38,41.38,0,0,1-6.39,22.21H36.56a41.38,41.38,0,0,1-6.39-22.21V330h84.15v68.36h0Zm120.29,22.21,42.72-44.9,42.72,44.9H234.62Z" transform="translate(0 0)"/></svg>