<svg id="Capa_1" data-name="Capa 1" xmlns="http://www.w3.org/2000/svg" viewBox="0 0 358.48 410.22"><defs><style>.cls-1{fill:#67a037;}</style></defs><title>se5</title><path class="cls-1" d="M376.85,395.22H308.71l3.23-88.77a7.5,7.5,0,0,0-7.49-7.77H268.31V76a33.41,33.41,0,0,0,32-33.34v-15a7.5,7.5,0,0,0-7.5-7.5H228.78a7.5,7.5,0,0,0-7.5,7.5v15a33.41,33.41,0,0,0,32,33.34V298.68H217.18a7.5,7.5,0,0,0-7.49,7.77l3.23,88.77H137.22V167.34l29.93-22.75,9.56,9.73a7.5,7.5,0,1,0,10.7-10.51l-8.22-8.36L190.3,127a7.5,7.5,0,1,0-9.08-11.94l-44,33.44v-107l26.38-13A7.5,7.5,0,1,0,157,15l-19.74,9.74V7.5a7.5,7.5,0,0,0-15,0v51L79.71,33.68a7.5,7.5,0,0,0-7.56,13l50.08,29.21V266.38l-26-15.17,1.19-23a7.5,7.5,0,1,0-15-.77L81.63,242.7l-13.65-8a7.5,7.5,0,0,0-7.56,13l61.81,36.05V395.22H33.37a7.5,7.5,0,0,0,0,15H376.85A7.5,7.5,0,0,0,376.85,395.22ZM236.28,42.65V35.18h49.06v7.47A18.39,18.39,0,0,1,267,61H254.66A18.4,18.4,0,0,1,236.28,42.65Zm60.38,271-0.43,11.71H268.31V313.68h28.35Zm-43.35,0v11.71H225.38L225,313.68h28.35Zm-25.39,81.55-2-54.83h27.38v14.06a7.5,7.5,0,1,0,15,0V340.39H295.7l-2,54.83H227.92Z" transform="translate(-25.87)"/></svg>